#define Servo_skull_shrunk_W__width 37
#define Servo_skull_shrunk_W__height 60
static unsigned char Servo_skull_shrunk_W__bits[] = {
   0x00, 0x40, 0x3f, 0x00, 0x00, 0x00, 0x78, 0x80, 0x07, 0x00, 0x00, 0x01,
   0x00, 0x10, 0x00, 0x80, 0x00, 0x00, 0x00, 0x00, 0x20, 0x00, 0x00, 0x80,
   0x00, 0x10, 0x00, 0x00, 0x00, 0x01, 0x08, 0x00, 0x00, 0x00, 0x02, 0x00,
   0x00, 0x00, 0x00, 0x00, 0x00, 0x00, 0x00, 0x00, 0x00, 0x02, 0x00, 0x00,
   0x00, 0x08, 0x00, 0x00, 0x00, 0x00, 0x00, 0x00, 0x00, 0x00, 0x00, 0x00,
   0x01, 0x00, 0x00, 0x00, 0x10, 0x01, 0x00, 0x00, 0x00, 0x00, 0x00, 0x00,
   0x00, 0x00, 0x10, 0x01, 0x00, 0x00, 0x00, 0x00, 0x00, 0x00, 0x00, 0x00,
   0x10, 0x01, 0x00, 0x00, 0x00, 0x08, 0x02, 0x00, 0x00, 0x00, 0x00, 0x00,
   0x00, 0x00, 0x00, 0x08, 0x01, 0x00, 0x00, 0x00, 0x10, 0x01, 0x00, 0x00,
   0x00, 0x00, 0x02, 0x00, 0x00, 0x00, 0x08, 0x0a, 0x00, 0x00, 0x00, 0x09,
   0x16, 0x00, 0x11, 0x00, 0x0e, 0xce, 0x03, 0x0a, 0x79, 0x06, 0xec, 0x17,
   0x04, 0xfd, 0x06, 0xe8, 0x3d, 0x80, 0xfb, 0x02, 0xe8, 0x3c, 0x80, 0xf9,
   0x00, 0xe0, 0x7f, 0xc0, 0xff, 0x00, 0xc0, 0xff, 0xf1, 0x7f, 0x02, 0x80,
   0xff, 0xf0, 0x3f, 0x00, 0x00, 0x7f, 0xa0, 0x1f, 0x00, 0x04, 0x1e, 0x00,
   0x1f, 0x00, 0x80, 0x03, 0x00, 0x0c, 0x00, 0x02, 0x04, 0x0a, 0x10, 0x08,
   0x00, 0x00, 0x0a, 0x00, 0x00, 0x02, 0x00, 0x1b, 0x00, 0x08, 0x04, 0x00,
   0x1f, 0x00, 0x04, 0x08, 0x00, 0x13, 0x10, 0x02, 0xf0, 0x07, 0x08, 0xfc,
   0x01, 0xc0, 0x07, 0x00, 0x7c, 0x00, 0xc0, 0x02, 0x00, 0x68, 0x00, 0xc0,
   0x00, 0x00, 0x48, 0x00, 0x00, 0x0a, 0x05, 0x22, 0x00, 0x40, 0x60, 0xd5,
   0x42, 0x00, 0x00, 0x04, 0x00, 0x00, 0x00, 0x40, 0x04, 0x00, 0x04, 0x00,
   0x00, 0x1c, 0x00, 0x07, 0x00, 0x00, 0xf0, 0xf5, 0x01, 0x00, 0x40, 0xc0,
   0x7f, 0x40, 0x00, 0x00, 0x08, 0x3f, 0x02, 0x00, 0x00, 0x00, 0x00, 0x01,
   0x00, 0x00, 0x40, 0x00, 0x00, 0x00, 0x00, 0x02, 0x14, 0x08, 0x00, 0x00,
   0x04, 0x00, 0x02, 0x00, 0x00, 0x08, 0x00, 0x02, 0x00, 0x00, 0x10, 0x00,
   0x01, 0x00, 0x00, 0x20, 0x80, 0x00, 0x00, 0x00, 0x00, 0x2b, 0x00, 0x00 };
